<svg xmlns="http://www.w3.org/2000/svg" xmlns:xlink="http://www.w3.org/1999/xlink" width="500" zoomAndPan="magnify" viewBox="0 0 375 374.999991" height="500" preserveAspectRatio="xMidYMid meet" version="1.0"><defs><clipPath id="fbc0918c79"><path d="M 187.5 0 C 83.945312 0 0 83.945312 0 187.5 C 0 291.054688 83.945312 375 187.5 375 C 291.054688 375 375 291.054688 375 187.5 C 375 83.945312 291.054688 0 187.5 0 Z M 187.5 0 " clip-rule="nonzero"/></clipPath><clipPath id="1435c34944"><path d="M 0 0 L 375 0 L 375 375 L 0 375 Z M 0 0 " clip-rule="nonzero"/></clipPath><clipPath id="85b4b80628"><path d="M 187.5 0 C 83.945312 0 0 83.945312 0 187.5 C 0 291.054688 83.945312 375 187.5 375 C 291.054688 375 375 291.054688 375 187.5 C 375 83.945312 291.054688 0 187.5 0 Z M 187.5 0 " clip-rule="nonzero"/></clipPath><clipPath id="9621271cad"><rect x="0" width="375" y="0" height="375"/></clipPath><clipPath id="0458b7723e"><path d="M 41.441406 113.640625 L 304.691406 113.640625 L 304.691406 292 L 41.441406 292 Z M 41.441406 113.640625 " clip-rule="nonzero"/></clipPath></defs><g clip-path="url(#fbc0918c79)"><g transform="matrix(1, 0, 0, 1, 0, 0)"><g clip-path="url(#9621271cad)"><g clip-path="url(#1435c34944)"><g clip-path="url(#85b4b80628)"><rect x="-82.5" width="540" fill="#050a30" height="539.999987" y="-82.499998" fill-opacity="1"/></g></g></g></g></g><g clip-path="url(#0458b7723e)"><path fill="#ffffff" d="M 212.050781 270.191406 L 200.617188 279.183594 C 171.703125 301.917969 129.1875 292.347656 112.964844 259.332031 L 41.441406 113.859375 L 70.886719 113.859375 C 93.40625 113.859375 113.957031 126.589844 123.824219 146.835938 L 170.988281 243.570312 C 174.421875 250.613281 179.449219 256.757812 185.75 261.414062 C 192.085938 266.089844 200.765625 270.09375 211.714844 269.78125 C 209.179688 266.589844 206.9375 263.175781 205.058594 259.339844 L 133.527344 113.859375 L 162.972656 113.859375 C 185.496094 113.859375 206.042969 126.589844 215.910156 146.835938 L 263.074219 243.570312 C 266.511719 250.613281 271.535156 256.757812 277.839844 261.414062 C 284.34375 266.21875 293.332031 270.320312 304.710938 269.746094 L 292.699219 279.183594 C 267.296875 299.164062 231.390625 294.105469 212.050781 270.191406 Z M 272.464844 175.609375 L 304.742188 113.65625 L 224.101562 113.675781 L 255.230469 175.492188 C 258.777344 182.546875 268.820312 182.613281 272.464844 175.609375 Z M 272.464844 175.609375 " fill-opacity="1" fill-rule="nonzero"/></g></svg>